<svg width="219" height="74" viewBox="0 0 219 74" fill="none" xmlns="http://www.w3.org/2000/svg">
<path d="M26.4352 39.88L26.1152 49.4C26.1152 52.68 26.3818 55.44 26.9152 57.68C27.4752 59.92 28.5018 61.4667 29.9952 62.32C28.1552 63.4667 26.2885 64.04 24.3952 64.04C21.0618 64.04 19.0085 61.3467 18.2352 55.96H10.0752C9.56849 57.6933 9.31516 59.0267 9.31516 59.96C9.31516 60.8667 9.42182 61.6 9.63516 62.16C7.66182 63.4133 5.90182 64.04 4.35516 64.04C1.98182 64.04 0.795156 62.6 0.795156 59.72C0.795156 58.28 1.23516 56.4667 2.11516 54.28C3.02182 52.0933 4.20849 49.5867 5.67516 46.76C7.16849 43.9333 8.11516 42.0667 8.51516 41.16C8.22182 39.72 7.88849 38.3067 7.51516 36.92C8.90182 35.96 10.2352 35.24 11.5152 34.76C12.8218 34.2533 14.2218 34 15.7152 34C17.2352 34 18.2885 34.3333 18.8752 35C20.3952 34.3333 21.6485 34 22.6352 34C23.6218 34 24.3552 34.16 24.8352 34.48C25.3152 34.8 25.6618 35.2667 25.8752 35.88C26.2485 36.9467 26.4352 38.28 26.4352 39.88ZM18.3952 40.8H17.1152C14.7152 45.44 12.9285 49.0933 11.7552 51.76H17.9552C17.9552 48.8533 18.1018 45.2 18.3952 40.8ZM47.2558 58.08L46.8558 57.88C46.1358 59.8 45.0958 61.3067 43.7358 62.4C42.4024 63.4667 40.9091 64 39.2558 64C36.9891 64 35.1758 63.1467 33.8158 61.44C32.4558 59.7333 31.7758 57.4533 31.7758 54.6C31.7758 50.1733 33.2558 46.4667 36.2158 43.48C39.2024 40.4933 42.9091 39 47.3358 39C48.4824 39 49.5358 39.1067 50.4958 39.32C50.6558 40.0667 50.7491 40.72 50.7758 41.28C52.1091 40.4267 53.4824 40 54.8958 40C56.8424 40 57.8158 41.0533 57.8158 43.16C57.8158 43.9067 57.3891 46.16 56.5358 49.92C55.7091 53.68 55.2958 56.4667 55.2958 58.28C55.2958 60.0933 55.7091 61.3467 56.5358 62.04C55.0424 63.3467 53.4824 64 51.8558 64C50.2558 64 49.0824 63.52 48.3358 62.56C47.6158 61.6 47.2558 60.1067 47.2558 58.08ZM39.2958 52.64C39.2958 53.9467 39.5624 54.96 40.0958 55.68C40.6558 56.3733 41.4424 56.72 42.4558 56.72C43.4691 56.72 44.4691 56.3467 45.4558 55.6C46.4424 54.8533 47.2691 53.8267 47.9358 52.52C48.1758 49.8267 48.6958 46.64 49.4958 42.96C46.8024 42.96 44.4291 43.9333 42.3758 45.88C40.3224 47.8267 39.2958 50.08 39.2958 52.64ZM61.8289 59.04C61.8289 57.9733 62.0956 55.9067 62.6289 52.84C63.1889 49.7733 63.7622 46.9733 64.3489 44.44L62.2689 41.24C65.6022 39.7467 67.9356 39 69.2689 39C70.6289 39 71.3089 39.8533 71.3089 41.56C71.3089 42.4933 70.8689 44.44 69.9889 47.4L70.3889 47.6C72.3089 41.8667 74.6956 39 77.5489 39C78.8556 39 79.8556 39.4 80.5489 40.2C81.2422 41 81.5889 41.8933 81.5889 42.88C81.5889 44.3467 81.0422 45.6 79.9489 46.64C78.8556 47.68 77.2156 48.2 75.0289 48.2C71.7222 48.2 70.0689 51.6 70.0689 58.4C70.0689 60.0533 70.3489 61.2667 70.9089 62.04C69.2556 63.3467 67.7356 64 66.3489 64C63.3356 64 61.8289 62.3467 61.8289 59.04Z" fill="#FFFCF5"/>
<path d="M82.0008 50.72C82.0008 48.8533 82.4008 46.96 83.2008 45.04C84.0008 43.0933 85.1341 41.2933 86.6008 39.64C88.0674 37.9867 89.9741 36.64 92.3208 35.6C94.6941 34.5333 97.1341 34 99.6408 34C102.174 34 104.147 34.4667 105.561 35.4C107.001 36.3333 107.721 37.6267 107.721 39.28C107.721 40.9333 107.174 42.2267 106.081 43.16C105.014 44.0667 103.787 44.52 102.401 44.52C101.014 44.52 99.7608 44.2267 98.6408 43.64C97.5474 43.0267 96.6674 42.16 96.0008 41.04C94.5608 41.7333 93.3208 43.0933 92.2808 45.12C91.2408 47.1467 90.7208 49.1867 90.7208 51.24C90.7208 53.2667 91.0541 54.88 91.7208 56.08C92.3874 57.2533 93.3341 57.84 94.5608 57.84C95.7874 57.84 96.8674 57.2133 97.8008 55.96C98.7608 54.7067 99.2408 53.2 99.2408 51.44C101.934 51.44 103.854 51.6533 105.001 52.08C106.174 52.5067 106.761 53.4267 106.761 54.84C106.761 57.0533 105.561 59.1333 103.161 61.08C100.761 63.0267 97.7474 64 94.1208 64C90.4941 64 87.5608 62.88 85.3208 60.64C83.1074 58.4 82.0008 55.0933 82.0008 50.72ZM132.385 39C135.612 39 137.225 40.6133 137.225 43.84C137.225 45.2267 136.825 47.5733 136.025 50.88C135.252 54.1867 134.865 56.68 134.865 58.36C134.865 60.04 135.145 61.2667 135.705 62.04C134.292 63.3467 132.799 64 131.225 64C128.159 64 126.625 62.3467 126.625 59.04C126.625 57.8133 127.025 55.7333 127.825 52.8C128.625 49.8667 129.025 47.96 129.025 47.08C129.025 45.88 128.572 45.28 127.665 45.28C126.919 45.28 126.065 45.6133 125.105 46.28C124.145 46.92 123.212 47.8 122.305 48.92C121.425 50.0133 120.679 51.4133 120.065 53.12C119.452 54.8 119.145 56.52 119.145 58.28C119.145 60.0133 119.425 61.2667 119.985 62.04C118.572 63.3467 117.079 64 115.505 64C112.439 64 110.905 62.3467 110.905 59.04C110.905 57.0667 111.439 53.0667 112.505 47.04C113.412 41.7333 113.932 38.76 114.065 38.12L111.825 34.92C115.159 32.9733 117.785 32 119.705 32C120.799 32 121.572 32.2267 122.025 32.68C122.479 33.1067 122.705 33.8267 122.705 34.84C122.705 36.76 122.519 38.8533 122.145 41.12C121.772 43.3867 121.425 45.0533 121.105 46.12L121.505 46.32C124.359 41.44 127.985 39 132.385 39ZM154.163 32.68C154.163 33.6933 153.63 34.5733 152.563 35.32C151.496 36.04 150.283 36.4 148.923 36.4C147.563 36.4 146.483 36.1333 145.683 35.6C144.91 35.0667 144.523 34.3467 144.523 33.44C144.523 32.2133 145.096 31.2533 146.243 30.56C147.39 29.8667 148.603 29.52 149.883 29.52C151.163 29.52 152.19 29.7867 152.963 30.32C153.763 30.8533 154.163 31.64 154.163 32.68ZM146.363 64C144.71 64 143.51 63.5867 142.763 62.76C142.016 61.9333 141.643 60.68 141.643 59C141.643 57.2933 142.496 52.7467 144.203 45.36L141.963 42C145.296 40 147.923 39 149.843 39C150.936 39 151.71 39.24 152.163 39.72C152.616 40.1733 152.843 40.92 152.843 41.96C152.843 42.36 152.35 44.7067 151.363 49C150.376 53.2933 149.883 56.36 149.883 58.2C149.883 60.04 150.296 61.32 151.123 62.04C149.63 63.3467 148.043 64 146.363 64ZM158.351 58.6C158.351 58.6 158.404 54.9333 158.511 47.6C158.511 44.5067 157.791 42.2133 156.351 40.72C157.737 39.5733 159.257 39 160.911 39C163.071 39 164.537 39.96 165.311 41.88C165.977 43.5333 166.311 46.04 166.311 49.4C166.311 52.7333 166.244 55.9733 166.111 59.12H167.471C171.524 50.6133 173.551 45.08 173.551 42.52C173.551 41.9067 173.431 41.3067 173.191 40.72C175.164 39.5733 176.951 39 178.551 39C180.631 39 181.671 40.2533 181.671 42.76C181.671 43.9067 181.377 45.3467 180.791 47.08C180.204 48.7867 179.297 51 178.071 53.72C176.871 56.4133 176.244 57.8133 176.191 57.92L176.711 60.24C175.591 61.2533 173.991 62.1333 171.911 62.88C169.831 63.6267 167.631 64 165.311 64C162.991 64 161.244 63.5867 160.071 62.76C158.924 61.9067 158.351 60.52 158.351 58.6ZM195.916 64C192.262 64 189.436 63.0533 187.436 61.16C185.462 59.2667 184.476 56.7067 184.476 53.48C184.476 49.1867 185.942 45.7067 188.876 43.04C191.836 40.3467 195.542 39 199.996 39C202.476 39 204.356 39.56 205.636 40.68C206.916 41.7733 207.556 43.2267 207.556 45.04C207.556 47.52 206.342 49.5867 203.916 51.24C201.516 52.8667 197.796 53.6933 192.756 53.72C192.836 55.4267 193.222 56.7733 193.916 57.76C194.609 58.72 195.476 59.2 196.516 59.2C197.556 59.2 198.449 58.8533 199.196 58.16C199.969 57.4667 200.356 56.3333 200.356 54.76C204.249 54.76 206.196 55.68 206.196 57.52C206.196 59.0933 205.236 60.5733 203.316 61.96C201.396 63.32 198.929 64 195.916 64ZM199.316 43.68C197.956 43.68 196.702 44.36 195.556 45.72C194.436 47.08 193.622 48.68 193.116 50.52C195.782 50.3067 197.782 49.7067 199.116 48.72C200.476 47.7067 201.156 46.64 201.156 45.52C201.156 44.9867 200.982 44.5467 200.636 44.2C200.316 43.8533 199.876 43.68 199.316 43.68Z" fill="#DFAEA1"/>
<path d="M196.441 30.7295L199.294 33.5731L205.295 34.8862L203.909 39.1663L204.714 42.5604L207.084 41.8078L209.901 36.5563L211.198 31.1202C210.061 29.3736 208.619 27.6249 207.809 25.8487C205.888 24.3689 205.124 21.9768 203.819 19.61L196.441 30.7295Z" fill="#895159"/>
<path d="M178.95 30.1074L176.998 33.105L175.299 41.0513L173.579 42.9013L170.424 41.7537L169.918 36.5233C169.918 36.5233 170.8 31.4744 171.337 29.3269C171.873 27.1795 176.863 26.8146 176.863 26.8146L178.95 30.1074Z" fill="#895159"/>
<path d="M218.273 1.58769L215.411 1L210.807 2.64221L210.024 7.28933L209.622 10.6022L206.134 14.6334L203.295 16.2672L201.405 16.2732C201.362 16.2155 201.324 16.1574 201.279 16.0999H197.749L192.036 13.9535L185.628 11.7534L175.011 12.3242L168.097 13.6299L161.309 10.7252L156.737 7.74139L152.849 8.52083L154.727 12.1248L151.166 17.5039L152.176 21.9728L157.639 22.0977L159.592 22.5528L163.237 21.2903L162.955 24.7055L164.145 27.5934L162.955 29.6849L158.973 32.7953L158.452 37.1123L161.455 40.5813C161.455 40.5813 165.682 40.2517 163.971 35.7538L166.975 32.8712L172.07 31.5697L174.187 30.2861L178.949 31.1178L187.974 31.1178L190.26 34.7081L188.731 39.6474L188.834 42.5574L191.577 42.2722L194.741 38.1271L196.82 35.4165V31.7365L200.726 27.969L203.247 22.7598C203.247 22.7598 203.268 22.6137 203.282 22.363L203.295 22.3803C203.295 22.3803 209.848 19.2119 212.235 14.4434C216.096 9.11285 211.509 3.92254 216.998 5.67655C218.382 6.11838 219.95 3.30342 218.272 1.58949L218.273 1.58769Z" fill="#895159"/>
<path d="M159.107 21.6174C156.603 22.6721 153.829 22.4963 153.829 22.4963C152.029 22.6501 150.486 18.2668 151.162 17.5043L154.723 12.1252L152.845 8.52117C152.845 8.52117 158.22 7.02873 161.306 10.7255C161.675 11.1685 162.158 11.5091 162.678 11.7667C162.71 11.7825 162.743 11.7985 162.776 11.8148C165.559 13.1743 168.729 13.4717 171.776 12.8675C179.527 11.3297 186.876 11.4225 195.066 15.2005C203.249 18.9796 210.982 12.8274 210.027 7.29009C209.176 2.38878 213.85 -0.707901 217.271 2.01646" stroke="black" stroke-width="0.952663" stroke-miterlimit="10" stroke-linecap="round" stroke-linejoin="round"/>
<path d="M162.959 35.4125C163.604 33.0857 172.072 31.5648 172.072 31.5648C172.072 31.5648 175.537 30.2981 173.603 26.8143" stroke="black" stroke-width="0.952663" stroke-miterlimit="10" stroke-linecap="round" stroke-linejoin="round"/>
<path d="M165.376 18.98C163.72 20.9143 161.198 24.0458 164.904 28.6392C164.904 28.6392 157.653 31.6483 158.458 37.1118C158.458 37.1118 158.847 39.7233 161.036 39.6452" stroke="black" stroke-width="0.952663" stroke-miterlimit="10" stroke-linecap="round" stroke-linejoin="round"/>
<path d="M170.956 36.6887C169.715 44.3397 173.517 43.0751 174.194 42.6595C175.426 41.903 176.177 32.2663 178.436 30.7306C180.144 29.5662 187.201 30.4119 187.201 30.4119" stroke="black" stroke-width="0.952663" stroke-miterlimit="10" stroke-linecap="round" stroke-linejoin="round"/>
<path d="M186.988 27.5131C187.086 29.3504 187.796 31.1013 188.849 32.6233C189.559 33.6492 190.784 35.0702 190.409 35.7716C185.602 44.7368 191.077 43.1779 191.571 42.2761C194.993 36.0353 198.145 37.9475 196.559 31.1804C196.559 31.1804 202.215 29.2713 202.483 22.7668" stroke="black" stroke-width="0.952663" stroke-miterlimit="10" stroke-linecap="round" stroke-linejoin="round"/>
<path d="M197.411 32.0057C197.411 32.0057 199.952 35.3851 205.738 34.8461C205.738 34.8461 202.168 41.9782 205.738 42.8831C207.795 43.4043 210.806 31.1124 210.806 31.1124C210.806 31.1124 207.943 28.5283 206.96 26.5074" stroke="black" stroke-width="0.952663" stroke-miterlimit="10" stroke-linecap="round" stroke-linejoin="round"/>
</svg>
