<svg width="360" height="225" viewBox="0 0 360 225" fill="none" xmlns="http://www.w3.org/2000/svg">
<path fill-rule="evenodd" clip-rule="evenodd" d="M405.812 -2.71262C404.954 0.340849 403.577 3.35471 401.682 6.32894C399.787 9.30316 397.476 12.17 394.751 14.9296C391.956 17.7342 388.821 20.5453 385.345 23.3627C381.889 26.0592 378.126 28.7394 374.058 31.4035C370.058 34.0224 365.861 36.7163 361.466 39.4851C357.091 42.133 352.588 44.8106 347.956 47.5182C343.325 50.2257 338.718 52.9711 334.136 55.7544C329.436 58.5071 324.844 61.3509 320.361 64.2859C315.898 67.0999 311.569 70.043 307.373 73.1151C303.177 76.1873 299.219 79.3208 295.497 82.5156C291.776 85.7105 288.257 88.9893 284.942 92.352C281.576 95.6389 278.388 98.9717 275.379 102.351C272.369 105.73 269.547 109.094 266.913 112.444C264.16 115.763 261.475 119.037 258.86 122.266C256.314 125.45 253.837 128.589 251.428 131.682C248.971 134.7 246.566 137.574 244.216 140.304C241.797 143.08 239.372 145.697 236.942 148.155C234.462 150.537 231.951 152.722 229.411 154.711C226.801 156.744 224.136 158.543 221.417 160.107C218.647 161.596 215.797 162.812 212.868 163.755C209.87 164.743 206.757 165.481 203.529 165.969C200.371 166.412 197.132 166.582 193.814 166.48C190.427 166.423 186.984 166.131 183.486 165.605C180.058 165.033 176.564 164.287 173.006 163.367C169.516 162.401 166.022 161.277 162.521 159.994C159.04 158.59 155.554 157.027 152.061 155.305C148.619 153.659 145.24 151.809 141.925 149.754C138.609 147.7 135.347 145.502 132.139 143.161C128.931 140.82 125.837 138.35 122.855 135.753C119.873 133.155 117.029 130.467 114.323 127.688C111.568 124.834 108.916 121.912 106.367 118.923C103.819 115.933 101.349 112.838 98.9572 109.637C96.4969 106.481 94.0807 103.242 91.7086 99.9203C89.4055 96.5532 87.0431 93.1708 84.6213 89.7731C82.2686 86.3302 79.891 82.8494 77.4886 79.3306C75.0172 75.8571 72.4962 72.3077 69.9256 68.6825C67.2859 65.1024 64.5525 61.5296 61.7253 57.964C58.9174 54.2774 55.9468 50.6432 52.8134 47.0615C49.68 43.4797 46.3936 39.8898 42.954 36.2918C39.5144 32.6939 35.8528 29.1329 31.9691 25.6091C28.0854 22.0852 24.0486 18.5533 19.8588 15.0132C15.7875 11.5038 11.5632 7.98633 7.18572 4.46076C2.85793 1.01101 -1.46987 -2.43874 -5.79766 -5.88848C-10.2441 -9.3689 -14.5967 -12.8566 -18.8555 -16.3515C-23.1143 -19.8464 -27.2794 -23.3485 -31.3506 -26.8579C-35.4219 -30.3673 -39.3056 -33.8911 -43.0017 -37.4295C-46.6978 -40.9678 -50.1719 -44.5432 -53.4239 -48.1557C-56.6069 -51.8133 -59.5086 -55.4926 -62.1289 -59.1937C-64.7685 -62.7737 -67.0481 -66.4812 -68.9678 -70.316C-70.8378 -74.0749 -72.2982 -77.8854 -73.3489 -81.7475C-74.35 -85.5337 -74.9663 -89.4094 -75.1978 -93.3745C-75.4486 -97.2186 -75.334 -101.031 -74.8538 -104.812C-74.3046 -108.639 -73.459 -112.388 -72.3168 -116.061C-71.056 -119.703 -69.5331 -123.246 -67.7482 -126.69C-65.9633 -130.133 -63.8916 -133.44 -61.5329 -136.609C-59.1743 -139.779 -56.5384 -142.75 -53.6254 -145.524C-50.7813 -148.253 -47.7193 -150.8 -44.4394 -153.164C-41.1098 -155.452 -37.6065 -157.475 -33.9294 -159.233C-30.2523 -160.99 -26.4359 -162.46 -22.4803 -163.641C-18.5936 -164.778 -14.4835 -165.573 -10.1499 -166.027C-5.93503 -166.512 -1.64013 -166.724 2.73474 -166.663C7.15927 -166.527 11.6486 -166.216 16.2028 -165.731C20.7569 -165.247 25.3759 -164.587 30.0596 -163.754C34.7434 -162.921 39.452 -162.05 44.1854 -161.14C48.9189 -160.231 53.6178 -159.3 58.2823 -158.345C63.0654 -157.36 67.7988 -156.451 72.4825 -155.618C77.1167 -154.86 81.7356 -154.201 86.3394 -153.64C90.9432 -153.08 95.4574 -152.731 99.8819 -152.595C104.306 -152.458 108.616 -152.572 112.812 -152.936C117.077 -153.345 121.236 -154.064 125.291 -155.094C129.277 -156.079 133.159 -157.374 136.935 -158.98C140.761 -160.51 144.438 -162.268 147.966 -164.253C151.544 -166.162 155.023 -168.223 158.402 -170.435C161.831 -172.572 165.15 -174.8 168.361 -177.119C171.622 -179.362 174.789 -181.598 177.862 -183.827C180.935 -186.056 183.954 -188.141 186.92 -190.082C189.835 -192.1 192.722 -193.936 195.58 -195.59C198.438 -197.245 201.247 -198.597 204.009 -199.646C206.789 -200.817 209.512 -201.625 212.176 -202.069C214.841 -202.514 217.507 -202.58 220.174 -202.269C222.842 -201.957 225.511 -201.266 228.181 -200.198C230.732 -199.16 233.354 -197.789 236.046 -196.085C238.738 -194.381 241.441 -192.36 244.156 -190.02C246.889 -187.801 249.668 -185.288 252.493 -182.479C255.386 -179.715 258.335 -176.716 261.338 -173.483C264.293 -170.325 267.371 -166.978 270.573 -163.442C273.775 -159.905 277.077 -156.217 280.478 -152.377C283.879 -148.537 287.423 -144.628 291.111 -140.651C294.799 -136.674 298.64 -132.689 302.634 -128.696C306.609 -124.581 310.771 -120.481 315.121 -116.396C319.402 -112.266 323.811 -108.165 328.348 -104.094C332.866 -99.9023 337.394 -95.771 341.931 -91.7001C346.469 -87.6293 350.947 -83.5738 355.366 -79.5336C359.715 -75.4483 363.956 -71.4541 368.088 -67.5511C372.201 -63.5271 376.111 -59.5871 379.818 -55.7309C383.525 -51.8748 386.926 -48.0349 390.021 -44.2111C393.066 -40.4632 395.78 -36.7694 398.163 -33.1297C400.546 -29.49 402.42 -25.9504 403.785 -22.511C405.2 -18.9957 406.106 -15.5805 406.503 -12.2654C406.851 -9.02619 406.62 -5.84192 405.812 -2.71262Z" fill="#FFFCF5"/>
<path fill-rule="evenodd" clip-rule="evenodd" d="M405.812 -46.7126C404.954 -43.6592 403.577 -40.6453 401.682 -37.6711C399.787 -34.6968 397.476 -31.83 394.751 -29.0704C391.956 -26.2658 388.821 -23.4547 385.345 -20.6373C381.889 -17.9408 378.126 -15.2606 374.058 -12.5965C370.058 -9.97763 365.861 -7.28374 361.466 -4.5149C357.091 -1.86702 352.588 0.810646 347.956 3.51818C343.325 6.22567 338.718 8.97109 334.136 11.7544C329.436 14.5071 324.844 17.3509 320.361 20.2859C315.898 23.0999 311.569 26.043 307.373 29.1151C303.177 32.1873 299.219 35.3208 295.497 38.5156C291.776 41.7105 288.257 44.9893 284.942 48.352C281.576 51.6389 278.388 54.9717 275.379 58.3506C272.369 61.7295 269.547 65.0939 266.913 68.4439C264.16 71.7631 261.475 75.0373 258.86 78.2662C256.314 81.45 253.837 84.5887 251.428 87.6821C248.971 90.6998 246.566 93.5739 244.216 96.3045C241.797 99.0802 239.372 101.697 236.942 104.155C234.462 106.537 231.951 108.722 229.411 110.711C226.801 112.744 224.136 114.543 221.417 116.107C218.647 117.596 215.797 118.812 212.868 119.755C209.87 120.743 206.757 121.481 203.529 121.969C200.371 122.412 197.132 122.582 193.814 122.48C190.427 122.423 186.984 122.131 183.486 121.605C180.058 121.033 176.564 120.287 173.006 119.367C169.516 118.401 166.022 117.277 162.521 115.994C159.04 114.59 155.554 113.027 152.061 111.305C148.619 109.659 145.24 107.809 141.925 105.754C138.609 103.7 135.347 101.502 132.139 99.1611C128.931 96.8199 125.837 94.3503 122.855 91.7526C119.873 89.1548 117.029 86.4668 114.323 83.6884C111.568 80.8343 108.916 77.9123 106.367 74.9227C103.819 71.933 101.349 68.8378 98.9572 65.6368C96.4969 62.481 94.0807 59.2422 91.7086 55.9203C89.4055 52.5532 87.0431 49.1708 84.6213 45.7731C82.2686 42.3302 79.891 38.8494 77.4886 35.3306C75.0172 31.8571 72.4962 28.3077 69.9256 24.6825C67.2859 21.1024 64.5525 17.5296 61.7253 13.964C58.9174 10.2774 55.9468 6.64325 52.8134 3.06147C49.68 -0.520321 46.3936 -4.1102 42.954 -7.70817C39.5144 -11.3061 35.8528 -14.8671 31.9691 -18.3909C28.0854 -21.9148 24.0486 -25.4467 19.8588 -28.9868C15.7875 -32.4962 11.5632 -36.0137 7.18572 -39.5392C2.85793 -42.989 -1.46987 -46.4387 -5.79766 -49.8885C-10.2441 -53.3689 -14.5967 -56.8566 -18.8555 -60.3515C-23.1143 -63.8464 -27.2794 -67.3485 -31.3506 -70.8579C-35.4219 -74.3673 -39.3056 -77.8911 -43.0017 -81.4295C-46.6978 -84.9678 -50.1719 -88.5432 -53.4239 -92.1557C-56.6069 -95.8133 -59.5086 -99.4926 -62.1289 -103.194C-64.7685 -106.774 -67.0481 -110.481 -68.9678 -114.316C-70.8378 -118.075 -72.2982 -121.885 -73.3489 -125.747C-74.35 -129.534 -74.9663 -133.409 -75.1978 -137.374C-75.4486 -141.219 -75.334 -145.031 -74.8538 -148.812C-74.3046 -152.639 -73.459 -156.388 -72.3168 -160.061C-71.056 -163.703 -69.5331 -167.246 -67.7482 -170.69C-65.9633 -174.133 -63.8916 -177.44 -61.5329 -180.609C-59.1743 -183.779 -56.5384 -186.75 -53.6254 -189.524C-50.7813 -192.253 -47.7193 -194.8 -44.4394 -197.164C-41.1098 -199.452 -37.6065 -201.475 -33.9294 -203.233C-30.2523 -204.99 -26.4359 -206.46 -22.4803 -207.641C-18.5936 -208.778 -14.4835 -209.573 -10.1499 -210.027C-5.93503 -210.512 -1.64013 -210.724 2.73474 -210.663C7.15927 -210.527 11.6486 -210.216 16.2028 -209.731C20.7569 -209.247 25.3759 -208.587 30.0596 -207.754C34.7434 -206.921 39.452 -206.05 44.1854 -205.14C48.9189 -204.231 53.6178 -203.3 58.2823 -202.345C63.0654 -201.36 67.7988 -200.451 72.4825 -199.618C77.1167 -198.86 81.7356 -198.201 86.3394 -197.64C90.9432 -197.08 95.4574 -196.731 99.8819 -196.595C104.306 -196.458 108.616 -196.572 112.812 -196.936C117.077 -197.345 121.236 -198.064 125.291 -199.094C129.277 -200.079 133.159 -201.374 136.935 -202.98C140.761 -204.51 144.438 -206.268 147.966 -208.253C151.544 -210.162 155.023 -212.223 158.402 -214.435C161.831 -216.572 165.15 -218.8 168.361 -221.119C171.622 -223.362 174.789 -225.598 177.862 -227.827C180.935 -230.056 183.954 -232.141 186.92 -234.082C189.835 -236.1 192.722 -237.936 195.58 -239.59C198.438 -241.245 201.247 -242.597 204.009 -243.646C206.789 -244.817 209.512 -245.625 212.176 -246.069C214.841 -246.514 217.507 -246.58 220.174 -246.269C222.842 -245.957 225.511 -245.266 228.181 -244.198C230.732 -243.16 233.354 -241.789 236.046 -240.085C238.738 -238.381 241.441 -236.36 244.156 -234.02C246.889 -231.801 249.668 -229.288 252.493 -226.479C255.386 -223.715 258.335 -220.716 261.338 -217.483C264.293 -214.325 267.371 -210.978 270.573 -207.442C273.775 -203.905 277.077 -200.217 280.478 -196.377C283.879 -192.537 287.423 -188.628 291.111 -184.651C294.799 -180.674 298.64 -176.689 302.634 -172.696C306.609 -168.581 310.771 -164.481 315.121 -160.396C319.402 -156.266 323.811 -152.165 328.348 -148.094C332.866 -143.902 337.394 -139.771 341.931 -135.7C346.469 -131.629 350.947 -127.574 355.366 -123.534C359.715 -119.448 363.956 -115.454 368.088 -111.551C372.201 -107.527 376.111 -103.587 379.818 -99.7309C383.525 -95.8748 386.926 -92.0349 390.021 -88.2111C393.066 -84.4632 395.78 -80.7694 398.163 -77.1297C400.546 -73.49 402.42 -69.9504 403.785 -66.511C405.2 -62.9957 406.106 -59.5805 406.503 -56.2654C406.851 -53.0262 406.62 -49.8419 405.812 -46.7126Z" fill="#BABDE2"/>
</svg>
