<svg width="69" height="44" viewBox="0 0 69 44" fill="none" xmlns="http://www.w3.org/2000/svg">
<path d="M46.4414 30.7295L49.2942 33.5731L55.2948 34.8862L53.9092 39.1663L54.7141 42.5604L57.0839 41.8078L59.9012 36.5563L61.1978 31.1202C60.0612 29.3736 58.6187 27.6249 57.8095 25.8487C55.8883 24.3689 55.1241 21.9768 53.819 19.61L46.4414 30.7295Z" fill="#895159"/>
<path d="M28.9498 30.1074L26.9976 33.105L25.2986 41.0513L23.5792 42.9013L20.4238 41.7537L19.918 36.5233C19.918 36.5233 20.8002 31.4744 21.3368 29.3269C21.8735 27.1795 26.8631 26.8146 26.8631 26.8146L28.9498 30.1074Z" fill="#895159"/>
<path d="M68.2733 1.58769L65.4109 1L60.8066 2.64221L60.024 7.28933L59.622 10.6022L56.1338 14.6334L53.295 16.2672L51.405 16.2732C51.3615 16.2155 51.3244 16.1574 51.279 16.0999H47.749L42.036 13.9535L35.6276 11.7534L25.0108 12.3242L18.0968 13.6299L11.3095 10.7252L6.73735 7.74139L2.8489 8.52083L4.72712 12.1248L1.16602 17.5039L2.17618 21.9728L7.63911 22.0977L9.59245 22.5528L13.2373 21.2903L12.9552 24.7055L14.1455 27.5934L12.9552 29.6849L8.97339 32.7953L8.45232 37.1123L11.4553 40.5813C11.4553 40.5813 15.6818 40.2517 13.9711 35.7538L16.9751 32.8712L22.0699 31.5697L24.1875 30.2861L28.9485 31.1178L37.9736 31.1178L40.2597 34.7081L38.7313 39.6474L38.8337 42.5574L41.577 42.2722L44.741 38.1271L46.8199 35.4165V31.7365L50.7255 27.969L53.2466 22.7598C53.2466 22.7598 53.2679 22.6137 53.2822 22.363L53.2949 22.3803C53.2949 22.3803 59.8483 19.2119 62.2352 14.4434C66.0958 9.11285 61.5086 3.92254 66.9984 5.67655C68.3819 6.11838 69.9499 3.30342 68.2724 1.58949L68.2733 1.58769Z" fill="#895159"/>
<path d="M9.10656 21.6174C6.60263 22.6721 3.82931 22.4963 3.82931 22.4963C2.02944 22.6501 0.486082 18.2668 1.16224 17.5043L4.72334 12.1252L2.84512 8.52117C2.84512 8.52117 8.22005 7.02873 11.3057 10.7255C11.6753 11.1685 12.1582 11.5091 12.6784 11.7667C12.7104 11.7825 12.743 11.7985 12.7763 11.8148C15.5593 13.1743 18.7286 13.4717 21.7756 12.8675C29.5268 11.3297 36.8765 11.4225 45.0655 15.2005C53.2492 18.9796 60.9821 12.8274 60.0269 7.29009C59.1758 2.38878 63.8498 -0.707901 67.2714 2.01646" stroke="black" stroke-width="0.952663" stroke-miterlimit="10" stroke-linecap="round" stroke-linejoin="round"/>
<path d="M12.959 35.4125C13.6036 33.0857 22.0721 31.5648 22.0721 31.5648C22.0721 31.5648 25.5366 30.2981 23.6026 26.8143" stroke="black" stroke-width="0.952663" stroke-miterlimit="10" stroke-linecap="round" stroke-linejoin="round"/>
<path d="M15.3762 18.98C13.7201 20.9143 11.1979 24.0458 14.9039 28.6392C14.9039 28.6392 7.65294 31.6483 8.45789 37.1118C8.45789 37.1118 8.84684 39.7233 11.0359 39.6452" stroke="black" stroke-width="0.952663" stroke-miterlimit="10" stroke-linecap="round" stroke-linejoin="round"/>
<path d="M20.956 36.6887C19.7153 44.3397 23.5168 43.0751 24.1941 42.6595C25.4262 41.903 26.1775 32.2663 28.4356 30.7306C30.1443 29.5662 37.201 30.4119 37.201 30.4119" stroke="black" stroke-width="0.952663" stroke-miterlimit="10" stroke-linecap="round" stroke-linejoin="round"/>
<path d="M36.9883 27.5131C37.0861 29.3504 37.7963 31.1013 38.8493 32.6233C39.5594 33.6492 40.7844 35.0702 40.4088 35.7716C35.6016 44.7368 41.0768 43.1779 41.5711 42.2761C44.9927 36.0353 48.1449 37.9475 46.5586 31.1804C46.5586 31.1804 52.2147 29.2713 52.483 22.7668" stroke="black" stroke-width="0.952663" stroke-miterlimit="10" stroke-linecap="round" stroke-linejoin="round"/>
<path d="M47.4111 32.0057C47.4111 32.0057 49.9516 35.3851 55.7375 34.8461C55.7375 34.8461 52.1679 41.9782 55.7375 42.8831C57.795 43.4043 60.8055 31.1124 60.8055 31.1124C60.8055 31.1124 57.9431 28.5283 56.96 26.5074" stroke="black" stroke-width="0.952663" stroke-miterlimit="10" stroke-linecap="round" stroke-linejoin="round"/>
</svg>
